<?xml version="1.0" standalone="no"?><!DOCTYPE svg PUBLIC "-//W3C//DTD SVG 1.1//EN" "http://www.w3.org/Graphics/SVG/1.1/DTD/svg11.dtd"><svg t="1763936456151" class="icon" viewBox="0 0 1024 1024" version="1.1" xmlns="http://www.w3.org/2000/svg" p-id="1971" xmlns:xlink="http://www.w3.org/1999/xlink" width="128" height="128"><path d="M240.60053 343.08533h113.775778v296.523421H240.60053z m0 0" fill="#8697A6" p-id="1972"></path><path d="M428.532163 15.045971c-19.219962 0.907998-33.999934 17.453966-33.999934 36.687928v130.609745c0 16.929967-13.727973 30.65594-30.65594 30.65594-16.939967 0-30.66594-13.725973-30.66594-30.65594V51.733899c0-19.233962-14.779971-35.78793-33.991933-36.693928-20.51396-0.959998-37.451927 15.37997-37.451927 35.68593v131.609743c0 16.929967-13.725973 30.65594-30.65594 30.65594-16.939967 0-30.66394-13.725973-30.66394-30.65594v-130.599745c0-19.235962-14.781971-35.78993-33.991934-36.695928C145.938715 14.079973 129.000748 30.419941 129.000748 50.725901V271.35947c0 93.053818 75.437853 168.491671 168.491671 168.491671s168.483671-75.437853 168.483671-168.491671V50.725901c0-20.30396-16.929967-36.647928-37.443927-35.67993z m0 0M387.046244 639.608751H207.940594c-23.891953 0-43.259916-19.367962-43.259916-43.259916 0-23.889953 19.367962-43.255916 43.259916-43.255915h179.10765c23.891953 0 43.259916 19.365962 43.259916 43.257915 0 23.889953-19.367962 43.257916-43.259916 43.257916z m0 0" fill="#A5B1BD" p-id="1973"></path><path d="M294.234425 1008.998029h-0.265999c-75.155853 0-136.069734-60.919881-136.069734-136.069734V703.458626c0-35.263931 28.585944-63.849875 63.851875-63.849875h144.695717c35.263931 0 63.859875 28.585944 63.859876 63.849875v169.469669c0 75.147853-60.923881 136.069734-136.071735 136.069734z m0 0" fill="#F4E74D" p-id="1974"></path><path d="M311.132392 693.794645c36.507929-20.859959 55.249892-54.185894 55.249892-54.185894H221.812567c-35.295931 0-63.919875 28.615944-63.919875 63.913875v169.271669c0 75.227853 60.981881 136.203734 136.209734 136.203734 27.233947 0 52.639897-8.015984 73.919855-21.789957-76.427851-20.68596-108.849787-86.599831-121.841762-148.999709-11.883977-57.045889 14.351972-115.499774 64.951873-144.413718z m0 0" fill="#EEDB00" p-id="1975"></path><path d="M827.139384 587.068853V58.169886c0-39.427923-48.693905-58.193886-74.999853-28.825943-57.991887 64.733874-129.975746 178.851651-139.577727 352.553311-1.193998 21.633958 9.227982 42.117918 26.867947 54.695893 26.187949 18.663964 62.029879 56.929889 66.975869 128.26575 1.975996-4.625991 120.733764 22.209957 120.733764 22.209956z m0 0" fill="#8697A6" p-id="1976"></path><path d="M852.139336 639.608751h-179.107651c-23.891953 0-43.259916-19.367962-43.259915-43.259916 0-23.889953 19.367962-43.255916 43.259915-43.255915h179.107651c23.891953 0 43.259916 19.365962 43.259915 43.257915 0 23.889953-19.367962 43.257916-43.259915 43.257916z m0 0" fill="#A5B1BD" p-id="1977"></path><path d="M759.327517 1008.998029h-0.266c-75.147853 0-136.069734-60.919881-136.069734-136.069734V703.458626c0-35.263931 28.593944-63.849875 63.859875-63.849875h144.693718c35.265931 0 63.851875 28.585944 63.851875 63.849875v169.469669c0 75.147853-60.919881 136.069734-136.069734 136.069734z m0 0" fill="#76E7E7" p-id="1978"></path><path d="M776.225484 693.794645c36.507929-20.859959 55.259892-54.185894 55.259892-54.185894h-144.579718c-35.295931 0-63.913875 28.615944-63.913875 63.913875v169.271669c0 75.227853 60.975881 136.203734 136.203734 136.203734 27.239947 0 52.647897-8.015984 73.929856-21.789957-76.439851-20.68596-108.851787-86.599831-121.843762-148.991709-11.883977-57.053889 14.341972-115.507774 64.943873-144.419718z m0 0" fill="#2EDDDA" p-id="1979"></path><path d="M427.820164 0.062c-27.109947 0-48.287906 23.969953-48.287905 51.671899v130.601745c0 8.631983-7.023986 15.663969-15.65597 15.663969s-15.657969-7.031986-15.657969-15.663969v-130.599745c0-27.703946-21.209959-50.399902-48.295906-51.673899-14.023973-0.671999-27.311947 4.297992-37.445927 13.959973a50.9599 50.9599 0 0 0-15.709969 36.703928v131.609743c0 8.631983-7.023986 15.655969-15.655969 15.655969-8.633983 0-15.655969-7.023986-15.65597-15.655969v-130.599745C215.454579 24.029953 194.274621 0.06 167.156674 0.06 120.468765 0.062 114.000777 36.929928 114.000777 50.725901V271.35947c0 27.303947 5.859989 53.585895 17.413966 78.115847a14.999971 14.999971 0 0 0 19.959961 7.171986 14.995971 14.995971 0 0 0 7.179986-19.959961C148.900709 316.195382 144.000719 294.209425 144.000719 271.35947V50.725901c0-5.719989 3.795993-20.70196 21.741957-20.70196 10.883979 0 19.711962 10.25798 19.711962 21.709958v130.601745c0 25.179951 20.47596 45.663911 45.655911 45.663911 25.171951 0 45.655911-20.48396 45.65591-45.663911V50.725901c0-5.719989 2.279996-11.045978 6.419988-14.999971 4.141992-3.943992 9.603981-5.959988 15.31997-5.701989 10.869979 0.515999 19.711962 10.25798 19.711961 21.709958v130.601745c0 25.179951 20.47796 45.663911 45.657911 45.663911 25.169951 0 45.655911-20.48396 45.655911-45.663911v-130.599745c0-11.453978 8.827983-21.703958 19.701962-21.703958 17.835965 0 21.749958 14.975971 21.749957 20.69396V271.35947c0 84.631835-68.859866 153.4917-153.4917 153.4917-41.219919 0-79.913844-16.117969-108.951787-45.383911-5.835989-5.873989-15.33597-5.913988-21.211959-0.078a14.987971 14.987971 0 0 0-0.078 21.211959c17.007967 17.147967 36.803928 30.48394 58.359886 39.663922v97.827809h-17.671965c-32.125937 0-58.259886 26.131949-58.259886 58.257886 0 18.631964 8.805983 35.233931 22.461956 45.905911-17.827965 14.483972-29.239943 36.561929-29.239943 61.26588v169.271669c0 83.375837 67.825868 151.203705 151.199705 151.203705 83.367837 0 151.203705-67.827868 151.203704-151.203705v-169.271669c0-23.233955-10.09998-44.155914-26.131949-58.609886 15.733969-10.43798 26.131949-28.303945 26.131949-48.561905 0-32.125937-26.131949-58.259886-58.257886-58.259886h-17.669965v-97.919809c65.553872-28.023945 111.607782-93.131818 111.607782-168.81167V50.725901c0-13.795973-2.999994-50.663901-53.163897-50.663901z m-12.515975 872.732295c0 66.835869-54.373894 121.203763-121.201763 121.203764-66.835869 0-121.203763-54.375894-121.203764-121.203764v-169.271669c0-26.969947 21.945957-48.913904 48.913905-48.913905h144.569717c26.977947 0 48.921904 21.943957 48.921905 48.913905z m0-276.44346c0 15.57797-12.679975 28.257945-28.257945 28.257945H207.940594c-15.58597 0-28.259945-12.679975-28.259945-28.259945 0-15.57597 12.673975-28.255945 28.259945-28.255945h179.10765c15.57997 0 28.259945 12.679975 28.259945 28.257945z m-75.927852-58.259886H255.600501v-88.067828c13.577973 3.155994 41.889918 8.443984 83.771836 0z m0 0M884.265273 644.91874c15.733969-10.44398 26.131949-28.309945 26.131949-48.567905 0-63.429876-68.257867-58.259886-68.257867-58.259886V58.173886c0-24.279953-14.663971-45.569911-37.365927-54.249894-22.625956-8.655983-47.663907-2.599995-63.805875 15.41397-59.991883 66.967869-133.569739 184.08564-143.38172 361.733294-1.467997 26.569948 10.919979 51.889899 33.131935 67.733867 20.939959 14.921971 46.671909 42.187918 56.827889 89.289826h-14.513972c-32.125937 0-58.259886 26.131949-58.259886 58.257886 0 18.631964 8.805983 35.239931 22.461956 45.913911-17.827965 14.475972-29.239943 36.553929-29.239942 61.25788v169.271669c0 83.375837 67.825868 151.203705 151.199704 151.203705s151.203705-67.827868 151.203705-151.203705v-169.271669c0-23.233955-10.09998-44.149914-26.131949-58.601886zM648.139734 424.377171c-13.795973-9.835981-21.499958-25.40795-20.59996-41.649919 9.335982-168.95967 78.991846-279.983453 135.771735-343.373329 9.437982-10.523979 22.069957-10.733979 30.74994-7.413985 8.741983 3.343993 18.079965 11.991977 18.079965 26.233948v479.919063h-93.993817c-11.039978-60.231882-43.647915-94.919815-70.007863-113.715778z m232.259546 448.419124c0 66.835869-54.367894 121.203763-121.203763 121.203764-66.827869 0-121.203763-54.375894-121.203763-121.203764v-169.271669c0-26.969947 21.945957-48.913904 48.913904-48.913905a14.999971 14.999971 0 0 0 14.999971-14.99997c0-8.289984-6.709987-14.999971-14.999971-14.999971h-13.873973c-15.57997 0-28.259945-12.679975-28.259944-28.259945 0-15.57597 12.679975-28.255945 28.259944-28.255945h179.107651c15.57997 0 28.259945 12.679975 28.259944 28.257945s-12.679975 28.257945-28.259944 28.257945h-101.069803a14.993971 14.993971 0 0 0-14.999971 14.999971 14.999971 14.999971 0 0 0 14.999971 14.99997h80.405843c26.977947 0 48.921904 21.943957 48.921904 48.913905z m0 0" p-id="1980"></path></svg>