<?xml version="1.0" standalone="no"?><!DOCTYPE svg PUBLIC "-//W3C//DTD SVG 1.1//EN" "http://www.w3.org/Graphics/SVG/1.1/DTD/svg11.dtd"><svg t="1763936548457" class="icon" viewBox="0 0 1024 1024" version="1.1" xmlns="http://www.w3.org/2000/svg" p-id="2324" xmlns:xlink="http://www.w3.org/1999/xlink" width="128" height="128"><path d="M707.792941 279.955626s82.920704-22.569647 122.24209 25.297604c39.327386 47.873252 17.553726 108.514304 3.873939 123.678068 1.711973-1.93797-153.871596 0-153.871596 0z m0 0" fill="#B24E2F" p-id="2325"></path><path d="M697.177107 120.92811c-7.233887-28.765551-36.803425-44.225309-63.759004-35.561444 8.219872-25.491602-5.209919-53.649162-31.591507-62.617021-23.451634-7.959876-49.773222 2.967954-60.725051 25.187606-7.959876 16.139748-6.4059 34.233465 2.233965 48.295245 6.023906 9.797847 4.967922 22.343651-3.16395 30.475524l-72.694864 72.694864 51.867189 51.86719 73.092858-73.092858c7.951876-7.953876 20.239684-8.94586 29.771535-2.975954 14.485774 9.059858 33.375479 10.591835 50.139217 1.663974 19.953688-10.625834 30.345526-34.007469 24.829612-55.939125z m0 0" fill="#A4E7FF" p-id="2326"></path><path d="M483.140451 383.088014c0.789988-36.375432 18.921704-70.178903 48.579241-91.256574l28.879549-20.515679c19.079702-13.561788 23.555632-40.015375 9.999843-59.099077a42.167341 42.167341 0 0 0-25.131607-16.751738c-11.123826-2.513961-20.655677-10.88183-22.193653-22.185653-1.883971-13.907783-16.749738-25.133607-16.749738-25.133608-16.719739-16.719739-41.60135-14.623772-55.289137 4.647928l-25.5856 35.999437c-20.327682 28.609553-52.951173 46.493274-88.038624 46.781269-37.75541 0.303995-75.418822 15.34376-103.630381 45.093296-51.701192 54.515148-52.599178 140.903798-1.967969 196.410931 55.873127 61.265043 150.903642 62.913017 208.878736 4.937922 27.383572-27.391572 41.469352-63.039015 42.24934-98.928454z m0 0" fill="#B24E2F" p-id="2327"></path><path d="M187.809065 16.561741C159.045515 23.795628 143.585756 53.359166 152.255621 80.320745c-25.499602-8.227871-53.655162 5.199919-62.625021 31.591506-7.959876 23.453634 2.969954 49.765222 25.179606 60.719052 16.149748 7.959876 34.241465 6.4119 48.305245-2.227966 9.795847-6.023906 22.349651-4.967922 30.483524 3.163951L266.283839 246.256152l51.87319-51.867189-73.098858-73.084858c-7.945876-7.951876-8.93986-20.239684-2.977954-29.771535 9.061858-14.477774 10.599834-33.375479 1.671974-50.133217-10.631834-19.959688-34.015469-30.351526-55.945125-24.835612z m0 0" fill="#A4E7FF" p-id="2328"></path><path d="M449.984969 230.590397c-36.373432-0.789988-70.186903-18.921704-91.264574-48.579241l-20.513679-28.879549c-13.555788-19.079702-40.015375-23.555632-59.093077-9.999843a42.167341 42.167341 0 0 0-16.759738 25.131607c-2.513961 11.123826-10.88983 20.655677-22.185654 22.187653-13.905783 1.88997-25.131607 16.755738-25.131607 16.755738-16.719739 16.719739-14.625771 41.59335 4.639928 55.289137l36.007437 25.5856c28.599553 20.327682 46.491274 52.945173 46.779269 88.038624 0.305995 37.75541 15.33576 75.412822 45.093295 103.622381 54.523148 51.703192 140.903798 52.599178 196.418931 1.967969 61.273043-55.873127 62.913017-150.895642 4.937923-208.870736-27.389572-27.383572-63.039015-41.467352-98.928454-42.24934z m0 0" fill="#DD6642" p-id="2329"></path><path d="M937.485352 115.794191c-7.233887-28.755551-36.795425-44.217309-63.749004-35.553445 8.219872-25.491602-5.209919-53.655162-31.599506-62.617021-23.453634-7.967876-49.767222 2.969954-60.719052 25.179606-7.959876 16.139748-6.4139 34.235465 2.233965 48.297246 6.015906 9.803847 4.959923 22.351651-3.16395 30.483523l-72.694864 72.694864 51.867189 51.86519 73.092858-73.092858c7.945876-7.951876 20.241684-8.94386 29.773535-2.975953 14.475774 9.061858 33.373479 10.593834 50.131217 1.671973 19.959688-10.631834 30.343526-34.015469 24.827612-55.953125z m0 0" fill="#A4E7FF" p-id="2330"></path><path d="M723.450696 377.962094c0.795988-36.373432 18.919704-70.178903 48.585241-91.256574l28.873549-20.513679c19.085702-13.563788 23.561632-40.015375 9.999844-59.093077a42.121342 42.121342 0 0 0-25.131608-16.759738c-11.125826-2.513961-20.657677-10.87983-22.187653-22.185653-1.883971-13.899783-16.749738-25.131607-16.749738-25.131608-16.719739-16.719739-41.59935-14.625771-55.297136 4.647928l-25.577601 35.999437c-20.327682 28.609553-52.951173 46.491274-88.044624 46.779269-37.75741 0.313995-75.412822 15.34376-103.624381 45.093296-51.701192 54.523148-52.599178 140.905798-1.967969 196.410931 55.875127 61.265043 150.903642 62.915017 208.878736 4.939923 27.383572-27.391572 41.469352-63.039015 42.24334-98.930455z m0 0" fill="#E7896E" p-id="2331"></path><path d="M162.317464 414.633521L242.308214 927.925501c7.273886 46.663271 47.459258 81.060733 94.678521 81.060734h352.018499c47.225262 0 87.404634-34.399463 94.678521-81.060734L863.674505 414.633521z m0 0" fill="#FF938A" p-id="2332"></path><path d="M543.733504 566.40515c105.138357-23.233637 164.059437-68.294933 164.059437-68.294933v-83.468696H162.317464L242.308214 927.925501c7.273886 46.663271 47.459258 81.068733 94.678521 81.068733h213.668661c-83.014703-95.37451-112.294245-201.988844-120.826112-285.129544-7.561882-73.646849 41.60935-141.489789 113.90422-157.45754z m0 0" fill="#FB695B" p-id="2333"></path><path d="M858.174591 498.102217H167.817378c-35.303448 0-63.929001-28.617553-63.929001-63.921001 0-35.311448 28.625553-63.929001 63.929001-63.929001H858.174591c35.311448 0 63.929001 28.617553 63.929001 63.929001 0 35.303448-28.617553 63.919001-63.929001 63.919001z m0 0" fill="#F9EE80" p-id="2334"></path><path d="M298.683333 434.181216c0-35.311448 28.615553-63.929001 63.929001-63.929001H167.817378c-35.303448 0-63.929001 28.617553-63.929001 63.929001 0 35.303448 28.625553 63.919001 63.929001 63.919001h194.794956c-35.313448 0-63.929001-28.615553-63.929001-63.919001z m0 0" fill="#EEDB00" p-id="2335"></path><path d="M666.207591 753.542226c0 84.616678-68.590928 153.217606-153.207607 153.217606s-153.217606-68.600928-153.217606-153.217606 68.600928-153.207606 153.217606-153.207606 153.207606 68.592928 153.207607 153.207606z m0 0" fill="#FFFCDC" p-id="2336"></path><path d="M359.782378 753.542226c0 73.404853 51.665193 134.763894 120.594116 149.73366-31.093514-63.34301-45.085296-126.210028-50.54721-179.411196-4.617928-44.953298 11.921814-87.764629 41.937345-117.914158-64.584991 18.007719-111.98225 77.264793-111.982251 147.591694z m0 0" fill="#F9EE80" p-id="2337"></path><path d="M607.810503 778.22184c8.28987 0 14.999766-6.709895 14.999766-14.999765v-24.897611c0-8.279871-6.709895-14.999766-14.999766-14.999766s-14.999766 6.719895-14.999766 14.999766v24.899611c0 8.287871 6.711895 14.999766 14.999766 14.999765z m0 0M418.181466 723.324698c-8.279871 0-14.999766 6.719895-14.999766 14.999766v24.899611a14.999766 14.999766 0 0 0 14.999766 14.999765c8.287871 0 14.999766-6.711895 14.999766-14.999765v-24.899611c0-8.28987-6.711895-14.999766-14.999766-14.999766z m0 0M548.319433 764.708051a14.995766 14.995766 0 0 0-4.303933-20.765675c-2.53996-1.671974-13.765785-5.993906-20.773676 4.295933a12.359807 12.359807 0 0 1-10.24184 5.531913c-1.991969 0-6.967891-0.539992-10.249839-5.531913a15.003766 15.003766 0 0 0-20.773676-4.295933 14.987766 14.987766 0 0 0-4.295933 20.763675 42.123342 42.123342 0 0 0 35.319448 19.063703 42.143342 42.143342 0 0 0 35.319449-19.063703z m0 0" p-id="2338"></path><path d="M866.698458 355.714442c-2.359963-22.203653-14.319776-60.765051-51.563194-81.788722 29.977532-26.413587 17.421728-60.399056 10.163841-72.218872l18.055718-18.045718c2.859955-2.859955 7.467883-3.21995 11.209824-0.873986 19.937688 12.483805 44.289308 13.303792 65.138983 2.193966 25.883596-13.779785 39.477383-44.419306 32.329494-72.842862-4.45993-17.725723-18.047718-45.701286-60.969047-49.233231-0.929985-26.24959-17.90572-50.58521-44.099311-59.48307-30.687521-10.421837-64.64899 3.655943-78.998765 32.749488-9.953844 20.171685-8.859862 43.639318 2.903954 62.787019 2.469961 4.015937 2.063968 8.95986-0.991984 12.015812l-17.193732 17.195731c-22.163654-17.483727-39.233387-10.88183-40.883361-10.569835-0.03-0.109998-0.053999-0.227996-0.077999-0.335994-4.45993-17.725723-20.077686-47.515258-60.967047-49.241231-0.937985-26.24159-17.90572-50.57921-44.109311-59.477071-30.687521-10.419837-64.64699 3.657943-78.998765 32.749489-9.943845 20.171685-8.859862 43.639318 2.905954 62.789019 2.469961 4.023937 2.063968 8.96786-0.983985 12.023812l-17.201731 17.193731c-10.391838-8.263871-23.157638-12.327807-35.883439-11.271824-14.72577 1.239981-28.389556 9.287855-37.475415 22.077655 0 0-21.851659 37.077421-42.399337 54.249153-21.279668-16.429743-46.179278-53.905158-46.179278-53.905158-17.553726-24.703614-51.2232-31.305511-76.708802-15.703755l-18.045718-18.045718c-2.859955-2.859955-3.21995-7.459883-0.875986-11.211825A15.001766 15.001766 0 0 0 250.044093 78.818768c-7.02389-4.389931-16.281746-2.265965-20.671677 4.759926-9.805847 15.661755-7.71188 35.537445 5.085921 48.333245l18.647708 18.647709c-2.413962 4.49993-1.26598 13.811784-8.655865 21.203668-7.391885 7.389885-17.391728 6.757894-22.031655 9.413853l-18.209716-18.219715c-12.921798-12.913798-33.047484-15.099764-48.945235-5.335917-10.303839 6.335901-22.953641 6.915892-33.811472 1.563976C106.066343 151.597631 98.326464 132.951923 103.834378 116.738176c6.125904-18.023718 25.773597-27.959563 43.811315-22.139654a15.025765 15.025765 0 0 0 15.211762-3.663943 14.999766 14.999766 0 0 0 3.671943-15.203762 35.137451 35.137451 0 0 1 2.733957-27.679568c4.725926-8.507867 12.609803-14.521773 22.201653-16.935735 13.093795-3.289949 27.52357 1.717973 35.899439 12.475805a15.011765 15.011765 0 0 0 21.053671 2.615959 15.003766 15.003766 0 0 0 2.61796-21.045671C235.230325 4.859924 208.972735-4.225934 184.153123 2.015969c-17.725723 4.45993-42.373338 20.749676-49.239231 60.967047-26.24359 0.937985-50.58721 17.90572-59.485071 44.101311-10.421837 30.687521 3.655943 64.65499 32.757489 78.998765 20.171685 9.945845 43.639318 8.859862 62.779019-2.905954 4.031937-2.469961 8.96986-2.061968 12.023812 0.991984l17.195731 17.195732c-8.265871 10.389838-11.969813 23.139638-11.265824 35.881439 1.719973 31.279511 27.155576 41.085358 27.155576 41.085358-18.155716 21.967657-30.123529 48.599241-34.53946 76.918798 0 0-92.646552-3.465946-92.646553 78.930767 0 41.709348 32.539492 75.950813 73.562851 78.71877l47.34326 303.743254c1.147982 7.399884 6.365901 14.507773 17.131732 12.507805 8.139873-1.507976 13.779785-8.94586 12.507805-17.131733L192.840987 513.101983h591.256761c8.287871 0 14.999766-6.711895 14.999766-14.999766a14.999766 14.999766 0 0 0-14.999766-14.999765H167.817378c-26.975579 0-48.929235-21.945657-48.929236-48.921236 0-26.983578 21.953657-48.929235 48.929236-48.929236h690.365213c26.975579 0 48.929235 21.945657 48.929235 48.929236 0 26.975579-21.953657 48.919236-48.929235 48.919236 0 0-20.585678-1.559976-22.335651 12.687801l-66.982953 429.823284C762.684083 965.234918 729.096608 993.984469 689.005234 993.984469H336.986735c-40.093374 0-73.678849-28.757551-79.858753-68.374932l-8.451868-54.233152a14.991766 14.991766 0 0 0-17.125732-12.507805 15.001766 15.001766 0 0 0-12.513804 17.133732l8.459867 54.225153c8.459868 54.327151 54.515148 93.756535 109.498289 93.756535h352.0105c54.983141 0 101.030421-39.429384 109.498289-93.748535l65.038984-417.329479c41.029359-2.773957 73.56885-37.015422 73.568851-78.72477-0.008-40.647365-30.883517-74.202841-70.4129-78.468774z m-30.265527-0.461993h-94.74852c11.163826-40.061374 45.303292-60.765051 45.303292-60.76505 38.491399 14.09978 47.249262 45.757285 49.445228 60.76505zM791.089639 132.193934c12.913798-12.913798 15.109764-33.039484 5.335917-48.945235-6.335901-10.303839-6.913892-22.945641-1.553976-33.803472 7.583882-15.39176 26.22559-23.125639 42.443337-17.617724 18.023718 6.125904 27.953563 25.779597 22.139654 43.811315a14.991766 14.991766 0 0 0 3.665943 15.203763 14.979766 14.979766 0 0 0 15.201762 3.679942 35.123451 35.123451 0 0 1 27.687568 2.733957c8.507867 4.719926 14.515773 12.599803 16.929735 22.201653 3.83594 15.235762-3.453946 31.657505-17.335729 39.04739-11.259824 5.999906-24.391619 5.569913-35.125451-1.147982-15.663755-9.805847-35.539445-7.70388-48.335245 5.085921l-18.647709 18.647708c-4.49993-2.405962-13.45979-0.913986-21.203668-8.655864-7.739879-7.741879-6.755894-17.383728-9.413853-22.023656z m-62.225028 11.991813c19.2097 2.593959 19.069702 20.099686 19.86569 25.983594 2.273964 16.765738 15.765754 31.031515 33.733473 34.795456 20.319683 4.265933 22.117654 24.031625 20.899673 31.241512s-5.179919 13.515789-11.139825 17.759723c0 0-73.702848 34.819456-81.30473 101.286417H451.430946c3.943938-26.047593 15.631756-50.289214 33.749473-69.388916 24.437618-25.765597 57.413103-40.125373 92.864549-40.413368 39.313386-0.319995 76.748801-20.171685 100.148435-53.093171l25.577601-35.999437c4.021937-5.663912 9.787847-14.241777 25.093607-12.17181z m-139.881814 70.466899a58.451087 58.451087 0 0 0-3.991937-7.819878l18.053717-18.045718c2.859955-2.859955 7.459883-3.21195 11.203825-0.875986a65.576975 65.576975 0 0 0 19.155701 8.117873c-13.039796 9.975844-28.351557 16.459743-44.419306 18.623709zM550.781394 137.317854c12.913798-12.913798 15.107764-33.039484 5.335917-48.943235-6.335901-10.305839-6.921892-22.945641-1.563976-33.813472 7.585881-15.38176 26.22759-23.115639 42.445337-17.607724 18.031718 6.123904 27.959563 25.771597 22.139654 43.811315a15.027765 15.027765 0 0 0 3.663943 15.201763 15.019765 15.019765 0 0 0 15.203762 3.679942c9.163857-2.951954 18.787706-0.999984 27.687568 2.733957 16.849737 7.06389 17.999719 28.219559 17.91972 31.297511-1.513976 1.663974-23.373635 32.155498-23.373635 32.155498-9.999844 3.515945-20.913673 2.381963-30.07753-3.351948-15.655755-9.803847-35.539445-7.70988-48.327245 5.085921l-18.647709 18.647708c-4.49993-2.413962-10.563835 1.991969-21.203668-8.655864-10.647834-10.647834-6.765894-17.389728-9.419853-22.029656z m-112.906236 60.17106l25.5856-36.007437c4.023937-5.655912 10.23584-15.045765 21.749661-13.999781 18.657708 1.695974 22.42965 21.929657 23.203637 27.811565 4.545929 34.639459 39.225387 31.829503 46.819268 41.945345a157.513539 157.513539 0 0 0-42.429337 12.593803c-17.90572-14.827768-64.232996-10.639834-86.896642-17.89972a129.061983 129.061983 0 0 0 11.967813-14.443775z m-195.698942 7.827878c16.765738-2.273964 30.757519-15.827753 34.811456-33.739473a27.213575 27.213575 0 0 1 10.805831-16.211747c12.311808-8.749863 29.44354-5.851909 38.179404 6.4519l20.521679 28.875548c23.789628 33.483477 62.359026 54.007156 103.162388 54.889143a130.049968 130.049968 0 0 1 30.437525 4.359932c-37.77341 30.05953-54.811144 71.520882-58.953079 105.310354h-105.654349c-5.76591-31.655505-23.897627-60.061062-51.115202-79.404759l-36.007437-25.5796c-5.663912-4.021937-12.563804-11.349823-9.60185-25.787598 2.819956-13.719786 17.733723-18.389713 23.413634-19.1637z m-1.585975 90.436587s35.545445 18.671708 44.233309 59.49907H211.988688c4.241934-21.991656 14.09378-42.553335 28.601553-59.49907z m0 0" p-id="2339"></path><path d="M681.207356 753.542226c0-92.748551-75.458821-168.207372-168.207372-168.207372-92.756551 0-168.217372 75.458821-168.217371 168.207372s75.460821 168.209372 168.217371 168.209372c92.748551 0 168.207372-75.458821 168.207372-168.209372z m-306.423212 0c0-76.208809 61.999031-138.207841 138.21584-138.207841 76.208809 0 138.207841 61.999031 138.207841 138.207841 0 76.210809-61.999031 138.20984-138.207841 138.20984-76.218809 0-138.21784-61.999031-138.21784-138.20984z m0 0" p-id="2340"></path></svg>