<?xml version="1.0" standalone="no"?><!DOCTYPE svg PUBLIC "-//W3C//DTD SVG 1.1//EN" "http://www.w3.org/Graphics/SVG/1.1/DTD/svg11.dtd"><svg t="1763940025251" class="icon" viewBox="0 0 1028 1024" version="1.1" xmlns="http://www.w3.org/2000/svg" p-id="4087" xmlns:xlink="http://www.w3.org/1999/xlink" width="128.5" height="128"><path d="M894.951953 846.034411H131.051961c-64.077151 0-116.022607-51.943452-116.022607-116.022607V294.370943C15.029354 230.293793 66.97481 178.348337 131.051961 178.348337h763.899992C959.029104 178.348337 1010.97456 230.293793 1010.97456 294.370943v435.640861c0 64.079155-51.945456 116.022607-116.022607 116.022607z m0 0" fill="#F4E74D" p-id="4088"></path><path d="M473.158137 694.776986H203.178834c-33.307053 0-60.3138-26.996728-60.313801-60.303781 0-33.315068 27.006748-60.311796 60.313801-60.311796h269.979303c33.307053 0 60.3138 26.996728 60.3138 60.311796 0 33.307053-27.006748 60.305785-60.3138 60.305785z m0 0" fill="#DD6642" p-id="4089"></path><path d="M511.116274 489.98901H165.212681s-28.986614 23.718325-45.236352 61.878857c-9.189949 21.588164 10.159843 44.366654 33.032516 39.168501 20.712454-4.711202 45.761378-6.214137 68.072955 4.03989 49.220133 22.614168 117.086685 21.283569 117.086685 21.28357s67.858536 1.330599 117.080674-21.28357c22.307569-10.254027 47.356493-8.751092 68.068947-4.03989 22.880689 5.198153 42.222466-17.580337 33.03452-39.168501-16.243726-38.160532-45.236352-61.880861-45.236352-61.880861z m0 0" fill="#29CE69" p-id="4090"></path><path d="M484.774826 527.366012H191.562145c-63.483992 0-63.483992-63.475977-63.483992-63.475977 0-116.022607 94.05971-210.082317 210.090332-210.082317 116.022607 0 210.082317 94.05971 210.082317 210.082317 0 0 0 63.475977-63.475976 63.475977z m0 0M518.552798 770.585049H157.776157c-20.930881 0-37.894012-16.973151-37.894012-37.904031s16.963131-37.894012 37.894012-37.894012H518.552798c20.930881 0 37.902027 16.963131 37.902028 37.894012s-16.973151 37.902027-37.902028 37.902027z m0 0" fill="#FFAA75" p-id="4091"></path><path d="M894.951953 178.348337H533.65229l-109.315507 667.686074h470.61517c64.077151 0 116.022607-51.943452 116.022607-116.022607V294.370943C1010.97456 230.293793 959.029104 178.348337 894.951953 178.348337z m0 0" fill="#FCF5AF" p-id="4092"></path><path d="M804.431155 698.70065H1010.97456V325.682098H804.431155a138.522552 138.522552 0 0 0-110.708227 55.265941l-62.608282 83.248595c-21.377753 28.429526-21.377753 67.567969 0 95.991483l62.608282 83.248595a138.500509 138.500509 0 0 0 110.708227 55.263938z m0 0" fill="#FF938A" p-id="4093"></path><path d="M270.348023 355.740806a15.029354 15.029354 0 1 1-30.058708 0 15.029354 15.029354 0 0 1 15.029354-15.029354c8.306223 0 15.029354 6.725135 15.029354 15.029354z m0 0M353.19784 340.711452a15.029354 15.029354 0 1 1-30.058709 0c0-8.304219 6.723131-15.029354 15.029354-15.029354a15.029354 15.029354 0 0 1 15.029355 15.029354z m0 0M424.336783 449.041033a15.029354 15.029354 0 0 1-15.029354 15.029354 15.023342 15.023342 0 0 1-15.029355-15.029354 15.029354 15.029354 0 1 1 30.058709 0z m0 0M323.139131 434.011679a15.029354 15.029354 0 0 1-15.029354 15.029354 15.023342 15.023342 0 0 1-15.029354-15.029354 15.029354 15.029354 0 1 1 30.058708 0z m0 0M454.395491 362.622247a15.029354 15.029354 0 0 1-15.029354 15.029354 15.023342 15.023342 0 0 1-15.029354-15.029354 15.029354 15.029354 0 1 1 30.058708 0z m0 0M230.11344 449.041033c0 8.306223-6.723131 15.029354-15.029354 15.029354a15.029354 15.029354 0 1 1 0-30.058708 15.029354 15.029354 0 0 1 15.029354 15.029354z m0 0M762.73171 596.649331c-11.742935-11.732916-11.742935-30.770098 0-42.503014l127.06818-127.06818c11.73492-11.742935 30.772102-11.742935 42.505018 0 11.742935 11.732916 11.742935 30.760078 0 42.503014l-127.06818 127.06818c-18.740603 17.989135-36.63355 5.871468-42.503014 0z m0 0M941.11211 576.055108c0 16.602427-13.456282 30.058708-30.058709 30.058708s-30.058708-13.456282-30.058708-30.058708c0-16.594411 13.456282-30.058708 30.058708-30.058709s30.058708 13.464297 30.058709 30.058709z m0 0M814.04393 448.329644c0 16.602427-13.456282 30.058708-30.058709 30.058708-16.604431 0-30.058708-13.456282-30.058708-30.058708 0-16.604431 13.454278-30.058708 30.058708-30.058709 16.602427 0 30.058708 13.454278 30.058709 30.058709z m0 0" fill="#FFFCDC" p-id="4094"></path><path d="M894.951953 163.318982H806.615421a15.029354 15.029354 0 1 0 0 30.058709h88.336532C950.636712 193.377691 995.945205 238.686184 995.945205 294.370943v16.281801h-191.51405c-47.993738 0-93.871342 22.89672-122.723695 61.259647l-62.608282 83.250599c-25.251319 33.581589-25.251319 80.477182 0 114.058771l62.608282 83.248595c28.852352 38.354912 74.729957 61.259648 122.723695 61.259648H995.945205v16.2818c0 55.686763-45.308493 100.993252-100.993252 100.993253h-452.924618L546.427241 193.377691h196.814403a15.029354 15.029354 0 1 0 0-30.058709H131.051961C58.794834 163.318982 0 222.113816 0 294.378959v435.632845c0 72.265143 58.794834 131.051961 131.051961 131.051961h763.899992c72.257127 0 131.051961-58.786818 131.051961-131.051961V294.380963C1026.003914 222.113816 967.20908 163.318982 894.951953 163.318982zM452.696172 579.820462c-1.260462 0.508994-52.955429 21.510012-114.824266 21.510012-0.641252 0-64.946849 1.026004-110.513847-19.912893-21.924822-10.075679-48.053855-11.772994-77.675711-5.041847-5.204164 1.182309-10.370254-0.555084-13.790935-4.64908-1.597119-1.917746-5.003773-7.107883-2.084071-13.973292 4.268337-10.019569 9.542638-18.942998 14.716744-26.433628 10.684869 6.590873 24.688219 11.075632 43.038059 11.075632H458.816125zM411.569847 831.003053H131.051961C75.367202 831.005057 30.058708 785.698568 30.058708 730.011804V294.380963C30.058708 238.682176 75.367202 193.377691 131.051961 193.377691h384.909777l-18.285715 111.718199c-41.941918-41.996023-99.454247-66.317526-159.507538-66.317526-63.904814 0-125.034207 27.313346-167.709557 74.944376-5.542826 6.176063-5.0178 15.678622 1.166277 21.221448 6.176063 5.540822 15.678622 5.015796 21.221449-1.166278 36.978223-41.268603 89.947679-64.940838 145.321831-64.940838 59.640485 0 116.391327 27.69409 153.259335 74.411335l-27.686074 169.088251H191.562145c-48.697112 0-48.454638-48.390513-48.454638-48.446623 0-28.006701 5.807342-55.037495 17.25971-80.328892a15.045386 15.045386 0 0 0-7.498646-19.898865 15.033362 15.033362 0 0 0-19.890849 7.50065c-13.21982 29.213057-20.079217 60.413996-19.928924 92.727107 0.118231 23.537973 12.19582 43.476916 13.83903 46.011867-7.113894 9.731006-14.722755 21.948869-20.734497 36.078466-6.442583 15.12955-3.883585 32.375233 6.669025 45.00991a43.925793 43.925793 0 0 0 21.081174 13.933213 75.180838 75.180838 0 0 0-6.067851 29.541699c0 17.768705 6.20011 34.11463 16.524274 47.013824-22.708352 5.94962-39.507162 26.646043-39.507162 51.193988 0 29.191014 23.742372 52.931382 52.923366 52.931382h261.230215zM157.776157 755.545675c-12.61063 0-22.872673-10.254027-22.872674-22.864657s10.262043-22.872673 22.872674-22.872674h225.284007c8.306223 0 15.029354-6.725135 15.029355-15.029354a15.029354 15.029354 0 0 0-15.029355-15.029354h-179.88133c-24.970771 0-45.284446-20.313675-45.284447-45.284446a45.290458 45.290458 0 0 1 12.516447-31.233002c17.049299-2.050004 31.93838-0.226442 44.398716 5.496736 50.59081 23.247405 117.659804 22.762458 123.358935 22.660258 29.425472 0 65.000955-1.026004 108.83056-16.766748l-23.077072 140.923241zM995.945205 683.671295h-191.51405c-38.599389 0-75.491444-18.417973-98.700775-49.268227l-62.606278-83.248594c-17.253699-22.944814-17.253699-54.981386 0-77.9262l62.606278-83.248595c23.201315-30.84825 60.101386-49.268227 98.700775-49.268227H995.945205z m0 0" p-id="4095"></path><path d="M738.897159 448.329644c0 24.860556 20.225503 45.088063 45.088062 45.088062a44.839577 44.839577 0 0 0 28.014716-9.801142l-59.896986 59.896986c-8.516634 8.516634-22.646231 41.120313 0 63.76454 22.644227 22.648235 53.446387 9.911358 63.54411 0.212415 0.072141-0.070137 0.150294-0.140274 0.22043-0.210411l59.796791-59.804806a44.875648 44.875648 0 0 0-9.933401 28.189056c0 24.860556 20.225503 45.088063 45.088062 45.088063s45.088063-20.227507 45.088063-45.088063-20.227507-45.088063-45.088063-45.088062c-10.660822 0-20.461965 3.725276-28.189057 9.933401l60.305785-60.297769c8.516634-8.516634 24.95474-38.8098 0-63.76454-17.582341-17.582341-46.184204-17.582341-63.76454 0l-59.89899 59.896986a44.839577 44.839577 0 0 0 9.799139-28.014716c0-24.86256-20.225503-45.088063-45.088063-45.088063s-45.088063 20.225503-45.088062 45.088063z m171.921784 112.305346c8.288188 0 15.029354 6.739162 15.029354 15.029354s-6.741166 15.029354-15.029354 15.029355c-8.282176 0-15.029354-6.741166-15.029354-15.029355 0-8.282176 6.747178-15.029354 15.029354-15.029354z m-10.388289-122.936109c2.833534-2.84155 13.135656-8.10984 21.251506 0 8.10984 8.10984 2.833534 18.417973 0 21.251506L794.732211 585.904344c-4.414622 4.414622-13.69074 7.811256-21.377753 0.124243-7.687014-7.695029-2.833534-18.417973 0-21.251507z m-101.418083 10.630763c0 8.288188-6.739162 15.029354-15.029354 15.029354-8.288188 0-15.029354-6.741166-15.029354-15.029354 0-8.290192 6.741166-15.029354 15.029354-15.029354 8.290192 0 15.029354 6.739162 15.029354 15.029354z m0 0" p-id="4096"></path></svg>