<?xml version="1.0" standalone="no"?><!DOCTYPE svg PUBLIC "-//W3C//DTD SVG 1.1//EN" "http://www.w3.org/Graphics/SVG/1.1/DTD/svg11.dtd"><svg t="1763936582400" class="icon" viewBox="0 0 1026 1024" version="1.1" xmlns="http://www.w3.org/2000/svg" p-id="2506" xmlns:xlink="http://www.w3.org/1999/xlink" width="128.25" height="128"><path d="M854.119282 420.43917C854.305646 419.569472 890.69071 294.575342 743.376988 294.575342c-49.071843 0-113.301292 8.360329-174.709229 10.967421v425.651351l79.453182-1.058067s187.30984-222.935421 205.996337-309.696877z m0 0" fill="#FF8C42" p-id="2507"></path><path d="M603.026867 538.638027V398.574466c-154.169112-2.096094-308.586708-18.951014-459.497456-50.206059C85.756573 336.397025 29.248205 373.533558 17.286843 431.28836c-11.961362 57.752798 25.167155 114.269182 82.927969 126.230544 169.158387 35.028415 342.356665 53.392282 515.146145 54.738912a225.706834 225.706834 0 0 1-12.336094-73.619789z m0 0" fill="#F54432" p-id="2508"></path><path d="M212.287704 434.881378V361.526106a2424.78591 2424.78591 0 0 1-68.760297-13.157699c-29.565746-6.121957-58.786818 0.633237-81.885933 16.414059 10.997479 32.579632 45.328532 75.687828 150.64623 70.096908z m0 0" fill="#F4E74D" p-id="2509"></path><path d="M1008.787368 439.287984c-11.961362-57.752798-68.493777-94.873299-126.230544-82.921957-120.03845 24.86256-162.481346 29.46555-285.056752 35.930177 0 0-46.887577 132.979726-21.073158 194.473831 11.718888 27.906505 103.93099 14.121581 107.367702 13.825002 103.678497-8.947476 140.352125-14.011366 242.072799-35.076509 57.762818-11.961362 94.881315-68.477746 82.921957-126.230544z m0 0" fill="#FB695B" p-id="2510"></path><path d="M815.159188 495.491757c18.796712-63.704423 0.016031-125.785675 0-125.831765-74.238998 13.604571-121.07247 17.550278-217.659116 22.638215 0 0-46.887577 132.977722-21.073158 194.473832 11.718888 27.904501 103.939006 14.119577 107.367702 13.822998 63.021088-5.440626 101.297847-9.448454 144.462153-16.478184-21.536063-19.530145-24.054982-51.482552-13.097581-88.625096z m0 0" fill="#F54432" p-id="2511"></path><path d="M706.737427 460.172775c73.345252-42.989965 107.489941 6.324352 161.870152-19.311718 54.372196-25.630059 13.941229-84.493025 13.941229-84.493026-76.509432 15.842943-121.503311 23.45982-175.811381 28.571805z m0 0" fill="#F9EE80" p-id="2512"></path><path d="M823.128753 448.171335c2.480845-43.983906-7.969566-78.513346-7.969565-78.513347-40.078278 7.344344-72.180978 11.869182-108.413746 15.281848v75.232939c51.129863-29.97254 83.216532-15.085464 116.383311-12.00144z m0 0" fill="#EEDB00" p-id="2513"></path><path d="M793.148198 589.323022c-77.212806 0-64.596164-82.120391-45.909668-168.883852C747.424894 419.569472 783.809959 294.575342 636.498241 294.575342c-58.08144 0-137.432423 11.748947-208.172587 11.748948-56.820978 0-119.303014-3.96775-171.593143-8.430466-63.217472-5.400548-117.549589 44.360642-117.549589 107.804556v140.400219c0 102.315836 82.966043 185.25182 185.291898 185.20573 155.263249-0.072141 351.726967-0.330646 351.726967-1.168282 173.719295 0 204.178787-97.768955 208.070387-156.203084-35.202755 6.913503-91.123977 15.390059-91.123976 15.390059z m0 0" fill="#FFC7A4" p-id="2514"></path><path d="M294.033364 481.558544c-1.30054-44.619147 24.147162-85.346693 64.453886-104.54018 50.512658-24.054982 93.204039-71.084838 93.20404-71.084838-7.865362 0.250489-15.662591 0.390763-23.365636 0.390764-56.830998 0-119.303014-3.96775-171.593143-8.430466-63.217472-5.400548-117.549589 44.360642-117.549589 107.804556v140.400219c0 102.315836 82.966043 185.25182 185.291898 185.20573 27.569847-0.008016 56.430215-0.032063 85.266536-0.05611-91.528767-66.888642-113.509699-173.564994-115.707992-249.689675z m0 0" fill="#FFAA75" p-id="2515"></path><path d="M323.927751 537.870528c0-18.19153-18.522176-32.938333-41.362786-32.938332-22.842614 0-41.360783 14.746802-41.360783 32.938332s18.518168 32.940337 41.360783 32.940337c22.840611 0 41.360783-14.748806 41.360782-32.940337z m0 0M630.368268 537.870528c0-18.19153-18.520172-32.938333-41.360783-32.938332-22.85063 0-41.370802 14.746802-41.370802 32.938332s18.520172 32.940337 41.370802 32.940337c22.840611 0 41.360783-14.748806 41.360783-32.940337z m0 0" fill="#FF83B4" p-id="2516"></path><path d="M435.786225 537.870528a42.226474 42.226474 0 0 0 35.389119-19.099303 15.025346 15.025346 0 0 0-4.312422-20.806638c-2.544971-1.675272-13.792939-6.003726-20.814654 4.306411a12.384188 12.384188 0 0 1-10.262043 5.540822c-1.995898 0-6.98364-0.541057-10.270059-5.540822a15.033362 15.033362 0 0 0-20.814653-4.306411 15.017331 15.017331 0 0 0-4.304407 20.806638 42.206434 42.206434 0 0 0 35.389119 19.099303z m0 0M285.883446 509.314755a15.041378 15.041378 0 0 0 21.261527-0.008015c1.721362-1.723366 3.733292-1.979867 4.781338-1.979867s2.911687 0.41481 4.783343 1.979867c9.486528 7.945519 18.323789 2.935734 21.251506 0.008015a15.041378 15.041378 0 0 0 0.008016-21.261526c-6.957589-6.949573-16.203648-10.785065-26.042865-10.785065s-19.083272 3.835491-26.042865 10.787069a15.033362 15.033362 0 0 0 0 21.261526z m0 0M554.862796 509.314755a6.715115 6.715115 0 0 1 4.781339-1.987882c1.050051 0 2.913691 0.420822 4.783342 1.987882 9.488532 7.937503 18.325793 2.927718 21.253511 0a15.029354 15.029354 0 0 0 0.008016-21.251506 36.579444 36.579444 0 0 0-26.044869-10.787069c-9.839217 0-19.083272 3.827476-26.042865 10.787069a15.029354 15.029354 0 0 0 21.261526 21.251506z m0 0" p-id="2517"></path><path d="M1023.504111 436.242035c-6.598888-31.866239-25.213245-59.255734-52.414371-77.118622-27.201127-17.862888-59.726654-24.071014-91.584877-17.472125-4.783342 0.993941-9.41038 1.941793-13.919186 2.857581C853.047188 312.438231 821.211008 279.545988 743.370976 279.545988c-21.768517 0-46.394614 1.635194-67.898614 3.286419C663.56711 280.674192 650.595775 279.545988 636.498241 279.545988c-28.227131 0-60.790732 2.669213-95.272079 5.486717-37.56537 3.076008-76.399217 6.262231-112.900508 6.26223-25.533871 0-54.191843-0.821605-85.174357-2.440767-8.256125-0.408798-15.357996 5.931585-15.796853 14.221777a15.035366 15.035366 0 0 0 14.223781 15.796853c31.507538 1.643209 60.688532 2.480845 86.749432 2.480846 37.727687 0 77.188759-3.232313 115.357308-6.356415 33.846106-2.769409 65.814544-5.392532 92.813276-5.392532 41.276618 0 70.104924 10.316149 85.68335 30.659882 22.37971 29.223076 11.859162 71.383421 10.590685 76.094623a19.22555 19.22555 0 0 0-0.226442 0.909776c-14.317965 66.465816-24.876587 128.953863 2.801471 163.224799 12.782967 15.826912 35.811945 25.579961 60.055296 23.686262 1.903718-0.14829 38.950074-5.917558 71.585816-11.742935-17.237667 100.784845-111.876509 122.669589-190.794646 122.669589-0.689346 0-351.781072 1.168282-351.805119 1.168282-45.440751 0-88.164196-17.692556-120.304971-49.8173-32.156806-32.148791-49.871405-74.888266-49.871405-120.359076V405.69838c0-26.379523 10.7009-50.7391 30.138865-68.585957 19.474035-17.886935 44.711327-26.497753 71.10688-24.243351 9.017613 0.767499 18.33982 1.526982 27.882458 2.246388a15.009315 15.009315 0 0 0 16.125495-13.847045 15.029354 15.029354 0 0 0-13.847045-16.125495c-9.448454-0.713393-18.678481-1.462857-27.609925-2.224345C223.667931 279.978834 189.399 291.665659 164.021434 314.975186c-6.741166 6.184078-17.448078 18.676477-17.448078 18.676477-31.860227-6.598888-64.391765-0.400783-91.592892 17.472126C27.787352 368.986677 9.170992 396.374168 2.5701 428.242411c-6.598888 31.860227-0.390763 64.38375 17.472125 91.584877 17.862888 27.193112 56.782904 54.356164 106.662325 58.333933 6.6049 41.314693 25.956697 79.405088 56.123616 109.557981 37.815859 37.807843 88.086043 58.620493 141.558482 58.620493 0.032063 0 351.466458-1.102153 352.133761-1.174294 183.937252-0.132258 218.512783-106.692384 222.739037-170.230481a15.015327 15.015327 0 0 0-17.886935-15.740744c-31.701918 6.214137-81.158513 13.847045-89.322458 15.091476-15.678622-0.180352-26.583922-4.33647-33.323084-12.672752-15.295875-18.942998-11.686826-60.407984-3.717261-103.750638 16.406043-2.488861 30.754067-0.258505 45.745347 2.332556 36.938145 6.380462 59.317855 1.308556 74.261041-5.72919 23.195303-10.935358 31.822153-27.139006 34.974309-38.801785 4.5569-16.830873 0.831624-33.713847-4.077965-46.466755 17.183562 0.280548 33.958325 5.394536 48.675069 15.053401 20.492023 13.456282 34.511405 34.090583 39.481111 58.089456 9.183937 44.336595-15.929112 89.408626-58.418098 104.830748-7.803241 2.833534-11.686826 11.404274-9.001581 19.257612 4.242286 12.3902 17.566309 9.610771 19.257613 8.999578 56.430215-20.484008 89.783358-80.320877 77.595554-139.185848zM132.287454 361.776595c-9.20598 19.389871-8.133886 46.967734-8.133887 46.967734-20.281613-8.298207-34.848063-20.9409-43.569095-37.745722a90.823389 90.823389 0 0 1 51.700978-9.222012z m-87.116149 141.54245c-13.456282-20.486012-18.135421-44.987867-13.165714-68.98674 3.607045-17.399984 11.983405-33.00847 24.117104-45.42472 11.382231 19.726528 31.725965 40.126372 68.032876 51.781135l0.006012 106.347711C86.534092 541.056751 58.627587 523.811068 45.171305 503.319045z m689.432548-193.620164c2.973808-0.054106 67.271389-9.244055 100.758795 40.845777-27.898489 5.424595-50.308258 9.314192-71.287233 12.390199-2.701276-13.712783-9.739022-37.651538-29.471562-53.235976z m146.371883 98.105612c-2.208313 8.187992-8.352313 14.552423-18.778677 19.468024-19.796665 9.330223-36.008329 6.652994-56.540431 3.264375-13.32202-2.200297-27.874442-4.60299-44.44681-3.562959 0.220431-1.009973 4.540869-19.083272 5.095953-33.986379 29.918434-4.338474 62.301683-10.215953 108.588086-19.69647 4.460712 9.246059 9.157886 23.147209 6.081879 34.513409z m0 0" p-id="2518"></path></svg>