<?xml version="1.0" standalone="no"?><!DOCTYPE svg PUBLIC "-//W3C//DTD SVG 1.1//EN" "http://www.w3.org/Graphics/SVG/1.1/DTD/svg11.dtd"><svg t="1763936609653" class="icon" viewBox="0 0 1026 1024" version="1.1" xmlns="http://www.w3.org/2000/svg" p-id="2682" xmlns:xlink="http://www.w3.org/1999/xlink" width="128.25" height="128"><path d="M656.847585 113.722114c-15.850959-11.969378-38.332869-9.222012-50.839295 6.208125L108.402403 733.769143c-22.872673 28.2111-17.800767 69.768266 11.185848 91.646998s70.339382 15.374027 91.210145-14.356039L664.809135 164.312924c11.41229-16.257753 7.891413-38.629448-7.96155-50.59081z m0 0" fill="#FFC7A4" p-id="2683"></path><path d="M751.720885 210.935984c-11.568595-16.141526-33.854121-20.20346-50.378395-9.197964L43.663961 639.819648c-30.223029 20.133323-37.737706 61.307742-16.572368 90.825393 21.167342 29.503624 62.584235 35.593519 91.352423 13.418208L744.276345 261.604947c15.726716-12.123679 19.021151-34.535452 7.44454-50.668963z m0 0" fill="#FFE4D3" p-id="2684"></path><path d="M1002.328353 633.355022c0.24047-34.26292-28.932509-62.301683-63.203445-62.301683H521.781785c-34.270935 0-63.443914 28.030748-63.203444 62.301683 0.142278 19.975014 9.763068 37.689613 24.582012 48.891491 7.005683 5.300352 11.035554 13.822998 9.674896 22.497941-2.983828 18.872861 2.793456 38.847875 17.329847 53.392282a61.586286 61.586286 0 0 0 41.971977 18.083319c9.041659 0.256501 16.852916 6.0418 20.540117 14.299929 9.636822 21.612211 31.311155 36.673628 56.502356 36.673629 13.620603 0 26.19917-4.408611 36.415124-11.859163 8.538677-6.238184 19.912892-6.238184 28.453573 0a61.5422 61.5422 0 0 0 36.407108 11.859163c13.620603 0 26.19917-4.408611 36.415123-11.859163 8.538677-6.238184 19.912892-6.238184 28.453573 0a61.5422 61.5422 0 0 0 36.407108 11.859163c25.189198 0 46.865534-15.061417 56.510372-36.665613 3.76335-8.436477 11.833112-13.979303 21.061135-14.323977 17.027256-0.635241 33.715851-8.258129 45.410693-22.435819 11.608673-14.073487 15.945143-31.741996 13.456281-48.46065-1.330599-8.89337 2.410708-17.634442 9.580713-23.053026 14.818943-11.209894 24.429714-28.924493 24.580007-48.899506z m0 0" fill="#A4E7FF" p-id="2685"></path><path d="M775.611546 686.512845c88.593033-3.162176 153.800391-53.722928 153.800392-53.722927V571.055342H521.779781c-34.270935 0-63.443914 28.030748-63.203444 62.293668 0.142278 19.975014 9.763068 37.697628 24.582012 48.899507 7.005683 5.300352 11.035554 13.816986 9.674896 22.497941-2.983828 18.864845 2.793456 38.847875 17.329847 53.392282a61.656423 61.656423 0 0 0 41.971977 18.083319c9.041659 0.250489 16.852916 6.0418 20.540117 14.299929 9.644838 21.6062 31.311155 36.673628 56.502356 36.673628a61.520157 61.520157 0 0 0 36.415124-11.867178c8.538677-6.238184 19.912892-6.238184 28.453573 0a61.49611 61.49611 0 0 0 36.407108 11.867178c6.432564 0 12.640689-0.985926 18.474082-2.809487-12.947288-19.798669-21.996963-39.232626-28.26721-57.095515-13.558481-38.615421 14.051444-79.320924 54.951327-80.777769z m0 0" fill="#5AD6FF" p-id="2686"></path><path d="M822.477081 620.523961c-56.516384-37.072407-128.142278-37.988196-184.039453 0-55.14771 37.47319-130.224344 23.147209-167.703545-31.992485s-23.153221-130.214325 31.984469-167.693527c67.44573-45.831515 146.19153-70.050818 227.734795-70.050818 81.54126 0 160.289065 24.219303 227.73279 70.050818 55.139695 37.479202 69.463671 112.555836 31.98447 167.693527-23.349605 34.365119-97.572571 77.988321-167.693526 31.992485z m0 0" fill="#FF938A" p-id="2687"></path><path d="M552.489762 496.259256c5.422591 26.551859 30.112814 31.120783 42.354724 28.782216 19.648376-3.749323 32.539554-22.708352 28.790231-42.356728-7.342341-38.481159-24.900634-72.900384-49.80728-100.462216a406.301558 406.301558 0 0 0-67.171194 35.976267c23.077072 19.524133 39.42901 46.763335 45.831515 78.060461z m0 0M694.100345 456.563726c-2.128157 27.020775 20.329706 38.238685 32.735937 39.380916 19.922912 1.831577 37.549339-12.821041 39.388932-32.743953 3.657143-39.725589-4.007828-78.322975-20.954928-112.147037-4.929628-0.172337-9.863264-0.266521-14.816939-0.266521-22.99892 0-45.769393 1.933777-68.125057 5.721174 23.012947 27.076885 34.707789 62.770599 31.772055 100.055421z m0 0M849.966771 465.188571c-8.196008 25.84047 11.139757 41.85575 22.966857 45.785425 18.983076 6.29229 39.485119-3.983781 45.777409-22.964853 9.378317-28.251178 12.454325-57.348008 9.753049-85.559108a403.500086 403.500086 0 0 0-83.537158-35.232814c13.446262 30.104798 15.560391 64.822607 5.039843 97.97135z m0 0" fill="#FFC4BF" p-id="2688"></path><path d="M175.361182 588.986364v207.437151c0 68.313425 94.684932 123.693589 211.483053 123.693589s211.483053-55.382168 211.483053-123.693589V588.986364z m0 0" fill="#8697A6" p-id="2689"></path><path d="M449.849292 588.986364H175.361182v207.437151c0 50.825268 52.438419 94.504579 127.380791 113.52573-5.713159-31.491507-7.458568-62.309699-7.466583-88.641128-0.016031-38.952078 28.140963-72.415436 66.543968-78.928156 54.598638-9.268102 88.031937-35.280908 88.031938-35.280908z m0 0" fill="#6B7D8E" p-id="2690"></path><path d="M598.327288 588.986364c0-68.313425-94.684932-123.687577-211.483053-123.687577S175.361182 520.672939 175.361182 588.986364s94.684932 123.695593 211.483053 123.695593 211.483053-55.382168 211.483053-123.695593z m0 0" fill="#A4E7FF" p-id="2691"></path><path d="M474.633699 588.986364c0-25.706207-39.304767-46.55092-87.789464-46.55092-48.476681 0-87.781448 20.844712-87.781448 46.55092 0 25.714223 39.304767 46.55092 87.781448 46.55092 48.484697 0 87.789464-20.836697 87.789464-46.55092z m0 0" fill="#FF8A98" p-id="2692"></path><path d="M481.851797 771.71726c-8.298207 0-15.029354 6.733151-15.029354 15.029354v24.948728a15.029354 15.029354 0 0 0 15.029354 15.029355c8.304219 0 15.029354-6.725135 15.029354-15.029355v-24.948728a15.029354 15.029354 0 0 0-15.029354-15.029354z m0 0M291.838677 771.71726c-8.296204 0-15.029354 6.733151-15.029354 15.029354v24.948728a15.029354 15.029354 0 0 0 15.029354 15.029355c8.304219 0 15.029354-6.725135 15.029355-15.029355v-24.948728c0.008016-8.296204-6.725135-15.029354-15.029355-15.029354z m0 0M417.926944 792.375609c-2.542967-1.675272-13.790935-6.003726-20.81265 4.306411a12.394207 12.394207 0 0 1-10.270059 5.540821c-1.987883 0-6.981636-0.541057-10.262043-5.540821-4.562912-6.935546-13.879108-8.869323-20.814654-4.306411a15.019335 15.019335 0 0 0-4.312422 20.806638 42.226474 42.226474 0 0 0 35.389119 19.099303c14.307945 0 27.537785-7.137941 35.38912-19.099303a15.017331 15.017331 0 0 0-4.304408-20.806638z m0 0M317.731249 635.186599a15.029354 15.029354 0 1 0 14.081503-26.559875c-11.097675-5.879483-17.720611-13.221824-17.720611-19.632344 0-6.418536 6.622935-13.752861 17.722615-19.638357 14.239812-7.554755 34.300994-11.883209 55.029479-11.883209 20.736501 0 40.791671 4.328454 55.037495 11.883209 11.091663 5.885495 17.722614 13.21982 17.722615 19.638357 0 6.412524-6.630951 13.752861-17.722615 19.632344-14.247828 7.554755-34.300994 11.889221-55.037495 11.889221a15.029354 15.029354 0 1 0 0 30.058709c58.614481 0 102.818818-26.479718 102.818818-61.580274 0-35.108571-44.204337-61.580274-102.818818-61.580274s-102.818818 26.471703-102.818818 61.580274c0 18.261667 11.969378 34.661699 33.705832 46.190215z m0 0" p-id="2693"></path><path d="M966.632634 408.415687c-69.940603-47.532838-151.60811-72.65791-236.181291-72.65791-21.602192 0-43.012008 1.651225-64.085167 4.883538l87.084087-67.139131a51.686951 51.686951 0 0 0 10.490489-71.325307 51.700978 51.700978 0 0 0-70.936548-12.947288l-51.320235 34.190779 35.429198-50.472579a51.680939 51.680939 0 0 0-11.207891-71.2191 51.688955 51.688955 0 0 0-71.569784 8.737064L339.714184 424.563225l-65.872657 43.875695c-43.098176 12.476368-81.164524 46.324477-92.805261 61.822747l-145.698567 97.04955c-18.043241 12.015468-30.12083 30.379335-34.012431 51.700979-3.889597 21.331663 0.923804 42.771538 13.558482 60.385941 12.634677 17.620415 32.784031 32.319123 64.141276 33.048548-0.627225 25.111045 10.740978 49.24418 31.51355 64.962881 30.80216 23.31153 60.898943 15.177644 67.437714 13.494356 11.756963 17.165526 29.197025 32.768 51.741057 45.957761 42.206434 24.688219 98.011429 38.284775 157.126888 38.284775s114.920454-13.596556 157.134904-38.284775c28.173025-16.478184 48.36847-36.727734 59.468149-59.101433 8.204023 2.913691 41.541135 14.263859 71.006685-10.292101 3.098051-2.585049 7.466583-2.38065 10.722943 0 13.221824 9.650849 28.876399 14.754818 45.276431 14.754818 16.398027 0 32.054607-5.103969 45.268415-14.754818 3.264376-2.38065 7.466583-2.372634 10.730958 0 13.213808 9.650849 28.868384 14.754818 45.276431 14.754818 30.309198 0 57.871029-17.886935 70.23117-45.57301 1.432798-3.218286 4.460712-5.300352 7.897425-5.424595a76.958309 76.958309 0 0 0 56.446246-27.890474 76.964321 76.964321 0 0 0 16.720658-60.243663c-0.500978-3.372587 0.915789-6.685057 3.787397-8.853292 19.233566-14.542403 30.373323-36.695671 30.54566-60.7747 0.100196-14.528376-4.063937-28.672-11.891225-40.939961 38.386975-61.454027 21.604196-143.035366-38.833848-184.107585z m-231.013197-42.553112c13.267914 29.918434 18.684493 62.896845 15.640548 95.961425-1.074098 11.63272-11.406278 20.211476-23.036994 19.155413-0.212415-0.024047-20.744517-2.835538-19.139382-23.241393 2.526935-32.016532-4.627037-63.061166-20.25957-89.70721 13.762881-1.462857 45.074035-2.192282 46.795398-2.168235z m-79.507288 7.061793c17.221636 23.435773 25.36955 52.374294 23.004932 82.457049-2.769409 35.100556 18.452039 55.740869 51.085776 55.740869 26.151076 0 48.546818-19.999061 50.989589-46.542904 3.053965-33.096642-1.260462-66.14519-12.444305-96.885229a388.212227 388.212227 0 0 1 65.047045 12.00144c9.682912 25.555914 10.38829 54.025519 1.847609 80.954113-10.646795 33.557542 12.454325 58.520297 32.563601 64.580134 36.290881 10.949386 57.652603-11.015515 64.774512-32.493464 1.651225-4.969706 3.140133-10.035601 4.430654-15.061417a15.029354 15.029354 0 0 0-29.118873-7.468587 201.914364 201.914364 0 0 1-3.835491 13.065518c-3.679186 11.083648-15.702669 17.113425-26.786317 13.432235-0.196384-0.062121-19.562207-7.458568-13.370114-26.966669 8.218051-25.916618 9.486528-53.047609 4.015844-78.80191a390.817315 390.817315 0 0 1 81.423029 42.332681c48.196133 32.759984 60.758669 98.612603 28.000689 146.818755-19.734544 29.04072-85.190387 68.429652-147.021151 27.866427-61.989072-40.659413-140.774951-40.603303-200.728047 0.140274a106.157339 106.157339 0 0 1-16.626473 9.238043v-28.337346c0-17.275742-4.947663-33.956321-14.410145-49.464611 27.028791-5.877479 44.657221-32.34317 39.443037-59.662528-6.119953-32.102701-19.107319-62.255593-37.902027-88.446748-0.008016 0 39.445041-15.366012 55.616626-18.496125z m-86.496939 27.5458c19.758591 24.515883 33.276994 53.690865 39.256673 85.032079 2.184266 11.468399-5.370489 22.58411-16.836885 24.776391-0.212415 0.040078-20.72047 3.019898-24.822481-17.033268-5.558857-27.1871-18.277699-52.30616-36.407108-72.477558a391.015703 391.015703 0 0 1 38.809801-20.299648z m-64.273535 37.072407c12.320063 12.680767 21.830638 28.140963 27.804306 45.110106-15.610489-8.021667-32.751969-14.66865-51.053715-19.78865a104.973025 104.973025 0 0 1 23.249409-25.321456zM617.685096 129.39272a21.746474 21.746474 0 0 1 30.106803-3.679186 21.736454 21.736454 0 0 1 4.719217 29.958513l-79.811883 113.698067-148.868759 99.161675z m91.98566 84.85373a21.746474 21.746474 0 0 1 29.838278 5.448642 21.738458 21.738458 0 0 1-4.414623 30.002599l-141.079546 108.768438a420.363022 420.363022 0 0 0-99.74281 49.941542c-18.065284 12.281988-32.71189 28.499663-42.981949 47.442662-40.156431-6.997667-87.130176-5.06389-98.22184-4.067946zM244.886975 514.496877c37.683601-22.035037 88.094059-34.166732 141.95726-34.166732 53.863202 0 104.273659 12.131695 141.95726 34.166732 35.146646 20.556149 54.496438 47.013824 54.496439 74.489487 0 27.483679-19.357808 53.941354-54.496439 74.497503-37.683601 22.035037-88.094059 34.166732-141.95726 34.166732-53.863202 0-104.273659-12.131695-141.95726-34.166732-35.13863-20.556149-54.496438-47.013824-54.496438-74.497503 0-27.475663 19.357808-53.933339 54.496438-74.489487zM39.307452 721.877918c-20.906834-32.108712 1.502935-62.097284 12.696799-69.54984l108.806513-72.485573c-0.304595 3.029918-0.476932 112.948603-0.476932 112.948603L109.264086 732.164008c-10.65481 8.212039-49.035773 21.822622-69.956634-10.28609z m70.43557 44.494904c6.300305-2.639155 50.59081-35.625581 50.59081-35.625581v65.676274c0 9.03164 1.362661 17.900963 4.007828 26.527812-44.751405 2.464814-58.708665-27.217159-54.598638-56.580509z m419.058473 104.538176c-37.681597 22.037041-88.092055 34.176751-141.955256 34.176752-53.863202 0-104.273659-12.13971-141.95726-34.176752-35.13863-20.554145-54.496438-47.01182-54.496439-74.487483v-137.620791c10.528564 11.177832 23.694278 21.479953 39.326811 30.621808 42.206434 24.688219 98.011429 38.286779 157.126888 38.286779s114.920454-13.59856 157.134904-38.286779c15.624517-9.135843 28.790231-19.437965 39.318795-30.621808v137.620791c0 27.473659-19.349793 53.933339-54.496439 74.487483z m439.885151-200.64789c-11.11571 9.392344-17.504188 23.04501-15.390059 37.258771a46.903609 46.903609 0 0 1-10.175874 36.681644 46.849503 46.849503 0 0 1-34.379147 16.979162c-14.975249 0.561096-28.086857 9.454466-34.230857 23.217346a46.895593 46.895593 0 0 1-42.779554 27.764227c-9.989511 0-19.514114-3.100055-27.5458-8.971522a39.04025 39.04025 0 0 0-46.184204 0 46.400626 46.400626 0 0 1-27.5458 8.971522c-9.989511 0-19.514114-3.100055-27.545801-8.971522-13.816986-10.079687-32.040579-9.618787-46.184203 0-19.287671 13.119624-38.976125 7.923476-44.274474 5.895514 0.595162-4.180164 0.907773-159.553628 0.907773-159.553628a135.707053 135.707053 0 0 0 33.52548-16.580383c49.865393-33.8942 115.555695-33.83809 167.344845 0.134262 25.650098 16.828869 50.731084 22.395742 72.687969 22.395742 57.596493 0 83.709495-25.816423 97.502434-38.18458 1.917746 5.095953 12.360141 29.213057-15.732728 52.963445z m0 0" p-id="2694"></path></svg>