<?xml version="1.0" standalone="no"?><!DOCTYPE svg PUBLIC "-//W3C//DTD SVG 1.1//EN" "http://www.w3.org/Graphics/SVG/1.1/DTD/svg11.dtd"><svg t="1763937663741" class="icon" viewBox="0 0 1024 1024" version="1.1" xmlns="http://www.w3.org/2000/svg" p-id="3912" xmlns:xlink="http://www.w3.org/1999/xlink" width="128" height="128"><path d="M18.78 413.196l252.986 187.764s-1.148 52.134 49.672 102.766c50.828 50.634 103.164 49.484 103.164 49.484l188.484 252.024s-243.766 41.72-439.976-153.74C-23.094 656.03 18.78 413.192 18.78 413.192z m0 0" fill="#8697A6" p-id="3913"></path><path d="M250.438 700.172c19.516-6.68 35.24-15.664 47.578-24.688-27.008-40.078-26.25-74.524-26.25-74.524L18.78 413.196s-41.876 242.836 154.328 438.296a556.984 556.984 0 0 0 31.514 29.086c-9.414-24.11-15.648-48.28-19.648-70.43-8.616-47.774 19.54-94.25 65.46-109.976z m0 0" fill="#6B7D8E" p-id="3914"></path><path d="M71.126 562.164c-71.314-71.04-71.314-186.22 0-257.266l23.186-23.094c28.922-28.812 75.814-28.812 104.728 0l153.522 152.94c28.922 28.802 28.922 75.514 0 104.326l-23.188 23.094c-71.312 71.046-186.936 71.046-258.25 0z m0 0" fill="#A5B1BD" p-id="3915"></path><path d="M352.562 434.742L199.04 281.804c-28.914-28.812-75.806-28.812-104.728 0l-15.156 15.102L337.4 554.172l15.164-15.1c28.922-28.814 28.922-75.526 0-104.33z m0 0" fill="#F9EE80" p-id="3916"></path><path d="M463.54 953.094c-71.314-71.048-71.314-186.226 0-257.266l23.186-23.1c28.922-28.814 75.814-28.814 104.728 0l153.522 152.936c28.914 28.812 28.914 75.516 0 104.328l-23.186 23.1c-71.314 71.04-186.94 71.04-258.25 0z m0 0" fill="#A5B1BD" p-id="3917"></path><path d="M744.976 825.664l-153.522-152.938c-28.914-28.812-75.806-28.812-104.728 0l-15.156 15.102 258.242 257.266 15.164-15.1c28.922-28.814 28.922-75.526 0-104.33z m0 0" fill="#F9EE80" p-id="3918"></path><path d="M923.4 509.79c116.858-116.416 114.076-306.884-8.338-419.774-110.39-101.806-293.344-99.68-401.468 4.508-91.32 88-112.484 220.304-63.492 328.85 10.906 24.166 12.086 51.58 3.812 76.766l-13.42 40.86c-7.728 23.5 14.63 45.774 38.224 38.08l41.024-13.376c25.492-8.314 53.164-6.828 77.656 4.07 107.414 47.82 237.852 27.828 326-59.984z m0 0" fill="#76E7E7" p-id="3919"></path><path d="M619.1 437.852c-144.68-67.938-133.412-308.72-133.218-312.618-67.406 86.242-79.366 201.64-35.796 298.164 10.9 24.172 12.086 51.586 3.812 76.766l-13.43 40.868c-7.718 23.5 14.64 45.772 38.236 38.078l41.014-13.376c25.5-8.32 53.172-6.828 77.664 4.07 62.556 27.852 132.922 32.672 198.204 14.524-33.094-44.296-90.844-106.258-176.484-146.476z m0 0" fill="#2EDDDA" p-id="3920"></path><path d="M629.118 481.766c-30.814 0-55.782-24.976-55.782-55.78V366.36c0-17.228 13.96-31.196 31.18-31.196h49.194c17.228 0 31.188 13.968 31.188 31.196v59.624c0 30.806-24.976 55.78-55.78 55.78z m0 0M814.92 481.766c-30.81 0-55.788-24.976-55.788-55.78V366.36c0-17.228 13.97-31.196 31.188-31.196h49.196c17.226 0 31.188 13.968 31.188 31.196v59.624c0 30.806-24.978 55.78-55.782 55.78z m0 0" fill="#FB695B" p-id="3921"></path><path d="M875.118 241.844c0 35.688-26.954 52.952-60.196 52.952s-60.196-17.264-60.196-52.952c0-35.68 26.954-93.75 60.196-93.75s60.196 58.07 60.196 93.75z m0 0" fill="#FFFCDC" p-id="3922"></path><path d="M602.04 662.094c-34.712-34.57-91.188-34.57-125.9 0 0 0-43.914 37.92-60.64 75.39-15.632-2.132-49.532-10.57-83.476-44.382-33.79-33.664-42.36-67.312-44.524-82.938 43.062-21.554 75.648-60.468 75.648-60.468 16.836-16.774 54.54-71.048 0-125.58l-110.554-110.132a14.994 14.994 0 0 0-21.212 0.04 14.994 14.994 0 0 0 0.048 21.21l110.546 110.134c41.204 41.202-5.046 88.1-5.046 88.1L100.38 296.922s44.672-47.9 88.072-4.492c5.86 5.852 15.366 5.82 21.218-0.04a15.004 15.004 0 0 0-0.048-21.22c-34.71-34.576-90.75-35.14-125.898 0-32.04 32.048-68.694 62.338-79.828 140.064-1.108 6.806-10.086 66.946 3.664 150.25 13.188 79.86 50.774 196.844 154.96 300.634C266.698 965.898 390.838 1024 555.548 1024c138.736 0 200.016-83.382 200.016-83.382 47.266-64.61 16.836-108.814 0-125.586zM79.196 318.164l236.406 236.4c-65.586 62.03-169.57 61.054-233.892-3.024-31.64-31.524-49.07-73.43-49.07-118.008 0-43.352 16.532-84.158 46.556-115.368z m104.5 522.704c-129.328-129.336-148.08-294.094-148.806-299.422 7.376 11.172 71.65 122.718 224.172 80 4.298 21.874 16.594 57.85 51.798 92.914 35.226 35.094 71.36 47.328 93.28 51.586-14.234 45.702-11.796 96.14 9.156 141.264a14.986 14.986 0 0 0 19.922 7.282 14.996 14.996 0 0 0 7.29-19.92c-28.86-62.126-16.29-136.174 31.094-185.5l236.414 236.412c-65.586 62.024-169.57 61.056-233.892-3.016a14.988 14.988 0 0 0-21.21 0.04 14.994 14.994 0 0 0 0.046 21.21 197.172 197.172 0 0 0 31.282 25.384c-4.96-0.672-162.672-10.36-300.546-148.234z m545.648 83.522L492.796 687.844s46.814-45.758 88.072-4.492l153.522 152.938c38.664 38.664-5.046 88.1-5.046 88.1z m0 0" p-id="3923"></path><path d="M966.532 125.532c-4.844-6.728-14.22-8.242-20.94-3.4s-8.24 14.22-3.396 20.94c37.89 52.552 56 117.232 50.992 182.132-5.062 65.586-33.61 127.366-80.376 173.952-40.492 40.344-91.594 66.868-147.78 76.712-54.954 9.624-110.814 2.78-161.54-19.798-27.976-12.452-59.374-14.1-88.406-4.632l-41.024 13.382c-5.624 1.836-11.476 0.438-15.656-3.75-4.11-4.116-5.484-9.874-3.672-15.39l13.43-40.86c9.546-29.07 7.992-60.18-4.39-87.616C416.014 311.39 440.218 186.054 524 105.328 626.204 6.844 800.626 4.882 904.89 101.04c6.094 5.616 15.586 5.234 21.196-0.86a14.996 14.996 0 0 0-0.86-21.196C869.906 27.968 796.14 0 717.12 0c-1.266 0-2.548 0.008-3.814 0.024-80.428 0.914-155.054 30.64-210.116 83.702-46.46 44.766-77.14 101.76-88.712 164.814-11.296 61.554-3.71 124.148 21.954 181 9.288 20.584 10.438 43.992 3.234 65.914l-13.43 40.86c-5.336 16.232-1.14 33.842 10.938 45.952 12.14 12.164 29.844 16.406 46.196 11.078l41.014-13.384c21.97-7.164 45.32-4.944 66.914 3.516 81.58 31.978 161.016 25.08 178.914 21.946 62.274-10.914 118.908-40.312 163.774-85.008 51.852-51.648 83.5-120.164 89.11-192.906 5.554-71.954-14.532-143.68-56.562-201.976z m0 0" p-id="3924"></path><path d="M558.336 366.36v59.624c0 39.024 31.75 70.774 70.78 70.774 39.024 0 70.782-31.75 70.782-70.774V366.36c0-51.43-55.788-46.188-55.788-46.188v-25.742c31.85-6.9 55.78-35.29 55.78-69.172V157.336c0-8.29-6.71-15-15-15a15 15 0 0 0-15 15v67.92c0 17.198-10.694 31.9-25.78 37.892V157.336c0-8.29-6.712-15-15-15a15 15 0 0 0-15 15v105.812c-15.08-5.992-25.78-20.694-25.78-37.89V157.336a15 15 0 0 0-15-15 15 15 0 0 0-15 15v67.92c0 33.884 23.936 62.276 55.78 69.174v25.74c0.008 0-55.774-8.5-55.774 46.19z m111.562 0v59.624c0 22.484-18.296 40.78-40.78 40.78-22.492 0-40.79-18.296-40.79-40.78V366.36c0-8.93 7.266-16.188 16.188-16.188h49.194c8.93-0.008 16.188 7.258 16.188 16.188z m0 0M890.118 241.844c0-20.68-7.524-46.634-19.626-67.72-15.188-26.46-34.92-41.03-55.57-41.03-20.648 0-40.39 14.57-55.58 41.032-12.1 21.084-19.616 47.038-19.616 67.718 0 35.938 23.634 61.438 60.196 66.86v11.468s-55.78-5.242-55.78 46.188v59.624c0 39.024 31.748 70.774 70.78 70.774s70.78-31.75 70.78-70.774V366.36c0-51.43-55.78-46.188-55.78-46.188v-11.468c36.554-5.43 60.196-30.922 60.196-66.86z m-34.414 124.516v59.624c0 22.484-18.298 40.78-40.782 40.78-22.492 0-40.79-18.296-40.79-40.78V366.36c0-8.93 7.266-16.188 16.188-16.188h49.196c8.93-0.008 16.188 7.258 16.188 16.188z m-85.978-124.516c0-31.094 24.242-78.75 45.196-78.75 20.954 0 45.196 47.656 45.196 78.75 0 34.258-31.61 37.952-45.196 37.952-13.594 0-45.196-3.694-45.196-37.952z m0 0" p-id="3925"></path></svg>