<?xml version="1.0" standalone="no"?><!DOCTYPE svg PUBLIC "-//W3C//DTD SVG 1.1//EN" "http://www.w3.org/Graphics/SVG/1.1/DTD/svg11.dtd"><svg t="1763936519182" class="icon" viewBox="0 0 1024 1024" version="1.1" xmlns="http://www.w3.org/2000/svg" p-id="2144" xmlns:xlink="http://www.w3.org/1999/xlink" width="128" height="128"><path d="M725.984 39H298.016c-121.274 0-219.58 98.304-219.58 219.57v192.008h867.126v-192.008C945.562 137.304 847.26 39 725.984 39z m0 0" fill="#76E7E7" p-id="2145"></path><path d="M328.9 358.226c0 51.008-41.354 92.352-92.354 92.352-51.006 0-92.35-41.344-92.35-92.352 0-51 41.344-92.35 92.35-92.35 51 0 92.352 41.35 92.352 92.35z m0 0M879.804 358.226c0 51.008-41.344 92.352-92.35 92.352-51 0-92.352-41.344-92.352-92.352 0-51 41.352-92.35 92.352-92.35 51.006 0 92.35 41.35 92.35 92.35z m0 0" fill="#FB695B" p-id="2146"></path><path d="M638.172 983.344H385.828c-42.39 0-76.75-34.36-76.75-76.75v-80.54h405.844v80.54c0 42.39-34.36 76.75-76.75 76.75z m0 0" fill="#00D2CE" p-id="2147"></path><path d="M673.016 891.734h-322.04c-150.516 0-272.54-122.024-272.54-272.546v-139.032h867.126v139.032c0 150.522-122.022 272.546-272.546 272.546z m0 0" fill="#76E7E7" p-id="2148"></path><path d="M407.07 626.1c93.172-22.014 141.75-64.468 141.75-64.468v-81.476H78.44v139.032c0 150.522 122.022 272.546 272.54 272.546h120.554c-69.672-28.312-109.626-78.882-132.454-127.42-26.788-56.978 6.72-123.728 67.992-138.212z m0 0" fill="#2EDDDA" p-id="2149"></path><path d="M271.42 431.21c-24.74-24.75-32.358-59.592-24.678-91.32 8.32-34.312-22.774-69.57-24.702-71.796-30.556-35.454-30.384-88.922 0.406-124.18 36.546-41.836 100.172-43.446 138.788-4.82 0.32 0.32 28.906 27.554 67.634 19.508 31.56-6.556 65.74 0.508 90.194 24.96 26.884 26.884 34.26 65.868 22.172 99.406 0 0-29.898 83.892 20.024 133.814l-56.618 56.616c-49.93-49.92-133.812-20.024-133.812-20.024-33.546 12.094-72.524 4.712-99.406-22.164z m0 0" fill="#29CE69" p-id="2150"></path><path d="M365.688 292.344c-3.914 62.758-19.828 122.656-59.47 161.016a95.32 95.32 0 0 0 64.602 0.014s83.89-29.898 133.812 20.024l56.626-56.616c-49.93-49.922-20.032-133.814-20.032-133.814 12.094-33.54 4.72-72.522-22.164-99.406-24.452-24.452-58.64-31.516-90.194-24.96 0 0-57.5 42.522-63.18 133.74z m0 0" fill="#00C140" p-id="2151"></path><path d="M511.734 466.304L310.446 265.016c-11.72-11.72-11.72-30.712 0-42.43 11.71-11.712 30.71-11.712 42.42 0l201.298 201.288z m0 0" fill="#00A62C" p-id="2152"></path><path d="M752.58 431.21c24.74-24.75 32.358-59.592 24.678-91.32-8.32-34.312 22.774-69.57 24.702-71.796 30.556-35.454 30.384-88.922-0.406-124.18-36.546-41.836-100.172-43.446-138.788-4.82-0.32 0.32-28.906 27.554-67.634 19.508-31.56-6.556-65.74 0.508-90.194 24.96-26.884 26.884-34.26 65.868-22.172 99.406 0 0 29.898 83.892-20.024 133.814l56.618 56.616c49.93-49.92 133.812-20.024 133.812-20.024 33.546 12.094 72.524 4.712 99.406-22.164z m0 0" fill="#73DA8C" p-id="2153"></path><path d="M469.836 423.882L671.132 222.586c11.712-11.712 30.712-11.712 42.422 0 11.72 11.72 11.72 30.71 0 42.43L512.266 466.304z m0 0" fill="#00C140" p-id="2154"></path><path d="M927.516 561.632H96.484c-45 0-81.484-36.476-81.484-81.476 0-45.008 36.476-81.484 81.484-81.484h831.032c45.008 0 81.484 36.476 81.484 81.484 0 45-36.476 81.476-81.484 81.476z m0 0" fill="#B0F0EF" p-id="2155"></path><path d="M512 776.086c-31.04 0-56.204-25.156-56.204-56.196v-40.86a15.346 15.346 0 0 1 15.344-15.342h81.72a15.34 15.34 0 0 1 15.344 15.344v40.86c-0.008 31.038-25.164 56.194-56.204 56.194z m0 0" fill="#454545" p-id="2156"></path><path d="M383.954 719.882c0-26.36-26.836-47.734-59.946-47.734s-59.946 21.376-59.946 47.734c0 26.368 26.836 47.742 59.946 47.742s59.946-21.374 59.946-47.74z m0 0M759.938 719.882c0-26.36-26.836-47.734-59.946-47.734s-59.946 21.376-59.946 47.734c0 26.368 26.836 47.742 59.946 47.742s59.946-21.374 59.946-47.74z m0 0" fill="#FDB2DB" p-id="2157"></path><path d="M673.312 638.78a15 15 0 0 0-15 15v24.9a15 15 0 0 0 15 15c8.29 0 15-6.712 15-15v-24.9c0-8.288-6.71-15-15-15z m0 0M350.688 638.78a14.994 14.994 0 0 0-15 15v24.9c0 8.288 6.71 15 15 15a15 15 0 0 0 15-15v-24.9a15 15 0 0 0-15-15z m0 0" p-id="2158"></path><path d="M1024 480.156c0-41.6-26.46-77.132-63.438-90.648v-130.93C960.562 129.226 855.328 24 725.984 24H298.016c-72.368 0-139.57 32.64-184.4 89.562a15 15 0 1 0 23.572 18.556C176.288 82.478 234.898 54 298.016 54h427.968c112.806 0 204.58 91.774 204.58 204.57v125.18c-1.018-0.032-38.868-0.08-38.868-0.08 6.594-27.014 2.554-55.788-11.922-80.2a107.042 107.042 0 0 0-53.048-45.15c21.172-39.468 16.532-89.46-13.874-124.274-20.336-23.272-48.47-36.664-79.22-37.702-30.234-1-59.842 10.616-81.312 31.968-1.304 1.204-24.452 21.774-54.132 15.602-30.806-6.4-61.61-0.836-86.134 14.86-24.57-15.806-55.54-21.242-86.234-14.86-29.664 6.156-52.774-14.352-54.132-15.594-21.446-21.344-51.086-33.024-81.314-31.976-30.756 1.04-58.89 14.43-79.218 37.702-30.382 34.782-35.046 84.728-13.866 124.266a107.05 107.05 0 0 0-53.08 45.156c-14.476 24.414-18.514 53.188-11.92 80.204 0 0-37.836 0.046-38.852 0.078v-125.18c0-27.624 5.406-54.414 16.07-79.624a15 15 0 0 0-27.626-11.688c-12.24 28.93-18.444 59.648-18.444 91.312v130.93C26.46 403.024 0 438.554 0 480.156c0 41.594 26.46 77.126 63.438 90.648v48.384c0 139.078 99.25 255.398 230.64 281.882 0 0 2.126 97.274 91.75 97.274h252.344c93.032 0 91.75-97.274 91.75-97.274 131.39-26.484 230.64-142.804 230.64-281.882v-48.384C997.54 557.282 1024 521.75 1024 480.156zM592.08 173.29c47.396 9.866 80.982-23.282 81.288-23.586 15.828-15.828 36.85-24.134 59.25-23.376 22.366 0.758 42.836 10.508 57.64 27.46 25.946 29.704 26.094 74.634 0.266 104.594-7.946 9.172-33.54 41.876-29.188 77.64 1 8.228 8.524 14.064 16.704 13.08a14.998 14.998 0 0 0 13.078-16.704c-2.274-18.726 10.194-38.702 17.484-48.562a77.16 77.16 0 0 1 45.374 34.938 77.26 77.26 0 0 1 6.484 64.898H616.11l108.054-108.054c8.5-8.492 22.22-41.414 0-63.64-17.546-17.54-46.094-17.54-63.64 0l-156.734 156.74c8.984-45.164-6.08-88.508-6.908-90.836-10.468-29.04-3.148-61.898 18.664-83.702 19.352-19.368 47.236-26.97 76.532-20.89z m-141.76 210.38l-129.274-129.264c-2.828-2.836-8.078-13.132 0-21.21 8.08-8.08 18.384-2.836 21.212 0l131.71 131.71c-1.398 6.352-3.436 12.664-6.258 18.766z m80.938 0l150.476-150.474c5.852-5.852 15.368-5.852 21.22 0 7.78 7.788 2.828 18.374-0.008 21.21l-129.266 129.266zM233.74 153.792c14.804-16.954 35.28-26.704 57.64-27.46 22.344-0.72 43.422 7.546 59.22 23.34 0.328 0.338 33.93 33.462 81.312 23.62 19.836-4.12 39.64-1.76 56.258 6.39-25.148 29.758-32.876 71.32-19.54 108.328 0.11 0.296 5.478 15.742 7.392 36.524l-112.548-112.556c-17.546-17.54-46.094-17.54-63.64 0-25.36 25.368-8.5 55.15 0 63.64l108.046 108.056H261.26c-3.212-12.984-3.212-26.72 0.062-40.242 9.298-38.36-18.96-74.79-27.92-85.134-25.752-29.874-25.604-74.804 0.342-104.506z m-63.726 164.984a77.128 77.128 0 0 1 45.39-34.946c7.75 10.476 21.57 32.68 16.766 52.532-3.828 15.796-4.336 31.844-1.57 47.312H163.52a77.29 77.29 0 0 1 6.494-64.9z m529.906 587.82c0 34.046-27.704 61.75-61.75 61.75H385.828c-34.046 0-61.75-27.704-61.75-61.75v-1.126c8.86 0.82 366.984 0.82 375.844 0z m227.594-359.96h-54.97a15 15 0 1 0 0 30s57-0.048 58.016-0.08v42.634c0 142.016-115.53 257.546-257.54 257.546H350.978c-142.008 0-257.54-115.54-257.54-257.546v-42.634c1.018 0.032 716.158 0.08 716.158 0.08 8.288 0 15-6.712 15-15a15 15 0 0 0-15-15H96.484C59.82 546.632 30 516.812 30 480.154c0-36.664 29.82-66.484 66.484-66.484h831.032c36.664 0 66.484 29.82 66.484 66.484 0 36.656-29.82 66.476-66.484 66.476z m0 0" p-id="2159"></path><path d="M552.86 648.688h-81.72c-16.734 0-30.344 13.608-30.344 30.344v40.86c0 39.256 31.946 71.2 71.204 71.2s71.204-31.944 71.204-71.2v-40.86c0-16.736-13.61-30.344-30.344-30.344z m0.344 71.194c0 22.72-18.486 41.204-41.204 41.204s-41.204-18.476-41.204-41.204v-40.86c0-0.186 82.064-0.334 82.064-0.334 0.186 0 0.344 41.194 0.344 41.194z m0 0" p-id="2160"></path></svg>